#!OML:ASF F:\VICON\USERDATA\INSTALL\rory3\rory3.ASF
:FULLY-SPECIFIED
:DEGREES
99
root -0.380449 17.5218 23.8572 2.43581 -0.565348 1.78861
lowerback 15.5733 -0.405116 -3.32468
upperback 1.93635 -1.24863 -2.0888
thorax -6.6481 -0.547707 -0.0756639
lowerneck -5.18172 0.357956 -2.16299
upperneck -9.12911 0.755729 3.27915
head -2.01304 0.386302 1.40208
rclavicle -1.43125e-014 -1.59028e-014
rhumerus -49.4502 7.69204 -88.9517
rradius 82.3256
rwrist -1.72932
rhand -45.8236 36.236
rfingers 7.12502
rthumb -18.576 7.10295
lclavicle -1.43125e-014 -1.59028e-014
lhumerus -19.2815 -17.7662 86.814
lradius 111.802
lwrist 28.2305
lhand -37.6075 13.0135
lfingers 7.12502
lthumb -10.6607 42.723
rfemur -27.2871 -3.57272 17.1467
rtibia 104.6
rfoot 20.4362 -6.73225
rtoes 16.5606
lfemur -8.84148 -2.27086 -26.7998
ltibia 38.0817
lfoot -15.4137 -3.26597
ltoes -16.2299
100
root -0.38774 17.5973 24.3575 2.75754 -0.272555 2.11816
lowerback 15.4989 -0.811121 -3.68125
upperback 1.75877 -1.84782 -2.09201
thorax -6.77313 -0.82607 0.24656
lowerneck -5.55248 0.686309 -2.06023
upperneck -8.53595 1.16812 3.02485
head -1.7654 0.597767 1.29845
rclavicle 1.70955e-014 -7.95139e-015
rhumerus -50.3814 7.95753 -89.0702
rradius 82.608
rwrist -2.50384
rhand -45.9102 36.6655
rfingers 7.12502
rthumb -18.6593 7.54041
lclavicle 1.70955e-014 -7.95139e-015
lhumerus -18.1223 -17.4609 86.4164
lradius 112.632
lwrist 27.8587
lhand -37.3775 11.1144
lfingers 7.12502
lthumb -10.4388 40.8352
rfemur -30.2707 -3.8148 17.1005
rtibia 103.785
rfoot 19.3414 -6.03238
rtoes 16.2614
lfemur -6.51187 -2.80483 -27.2091
ltibia 36.5018
lfoot -14.0382 -3.29466
ltoes -19.9525
101
root -0.397393 17.6929 24.8767 2.84643 0.2243 1.98286
lowerback 15.557 -1.26251 -3.5777
upperback 1.55433 -2.42314 -1.90397
thorax -7.00345 -1.09963 0.511515
lowerneck -5.48279 0.94416 -2.05651
upperneck -8.1623 1.48963 2.7719
head -1.66271 0.762059 1.21556
rclavicle 7.35503e-015 6.36111e-015
rhumerus -51.5932 8.11244 -89.0443
rradius 82.9172
rwrist -2.61046
rhand -45.7687 37.0286
rfingers 7.12502
rthumb -18.5232 7.89054
lclavicle 7.35503e-015 6.36111e-015
lhumerus -17.3037 -17.2562 86.2628
lradius 113.429
lwrist 27.2631
lhand -37.3366 9.91247
lfingers 7.12502
lthumb -10.3994 39.6353
rfemur -32.5625 -4.03174 17.6701
rtibia 102.242
rfoot 18.6906 -5.43956
rtoes 13.7368
lfemur -3.74268 -3.27904 -27.0494
ltibia 34.6003
lfoot -12.308 -3.34711
ltoes -22.5076
102
root -0.391783 17.7956 25.3903 2.89684 0.998014 2.60038
lowerback 15.8099 -1.76084 -3.97951
upperback 1.2867 -3.17459 -1.89785
thorax -7.38555 -1.44025 0.915306
lowerneck -5.48703 1.15001 -1.8841
upperneck -7.60137 1.72295 2.29778
head -1.4802 0.880852 1.03437
rclavicle -4.68138e-014 -3.10104e-014
rhumerus -52.9299 8.33473 -88.8835
rradius 83.3936
rwrist -2.59203
rhand -45.8895 37.4367
rfingers 7.12502
rthumb -18.6394 8.30969
lclavicle -4.68138e-014 -3.10104e-014
lhumerus -16.939 -17.2336 86.3155
lradius 114.426
lwrist 26.3793
lhand -37.6457 8.94325
lfingers 7.12502
lthumb -10.6976 38.6509
rfemur -34.1378 -4.66393 17.0323
rtibia 100.311
rfoot 18.6298 -4.9276
rtoes 15.1993
lfemur -1.26474 -3.82085 -27.7295
ltibia 32.8096
lfoot -9.82974 -3.58395
ltoes -24.853
103
root -0.352985 17.8861 25.8819 2.86931 2.01481 3.93016
lowerback 16.3291 -2.4241 -4.54314
upperback 1.08109 -4.21376 -2.17534
thorax -7.83589 -1.91279 1.18791
lowerneck -5.18888 1.3188 -1.61537
upperneck -7.53992 1.90268 1.71136
head -1.50315 0.968733 0.802991
rclavicle 3.72721e-014 4.77083e-015
rhumerus -53.8962 8.81058 -88.7749
rradius 83.6285
rwrist -2.48583
rhand -45.9508 37.8011
rfingers 7.12502
rthumb -18.6984 8.67981
lclavicle 3.72721e-014 4.77083e-015
lhumerus -16.5342 -17.2102 86.2871
lradius 115.617
lwrist 25.628
lhand -38.4113 9.60005
lfingers 7.12502
lthumb -11.4359 39.2682
rfemur -35.3571 -5.94583 15.1527
rtibia 98.1817
rfoot 17.4869 -3.82073
rtoes 16.2218
lfemur 1.16678 -4.55186 -29.3248
ltibia 31.0819
lfoot -6.87905 -4.27873
ltoes -25.1222
104
root -0.414369 18.0045 26.4525 3.27069 1.56336 2.64805
lowerback 15.3122 -2.58508 -4.49848
upperback 0.987378 -4.29584 -1.35598
thorax -7.30343 -1.95737 1.99917
lowerneck -4.78685 1.54893 -1.6062
upperneck -7.79124 2.18055 1.23044
head -1.64899 1.11158 0.648369
rclavicle 1.28216e-014 9.14409e-015
rhumerus -54.7697 9.61569 -88.6684
rradius 83.9192
rwrist -2.46235
rhand -46.01 37.6731
rfingers 7.12502
rthumb -18.7553 8.55728
lclavicle 1.28216e-014 9.14409e-015
lhumerus -16.1196 -16.7459 86.2822
lradius 116.495
lwrist 25.2273
lhand -39.0093 8.73024
lfingers 7.12502
lthumb -12.0126 38.3655
rfemur -37.1815 -4.63971 17.5453
rtibia 95.4373
rfoot 15.8726 -4.48005
rtoes 16.6123
lfemur 2.99071 -4.32164 -27.5842
ltibia 29.364
lfoot -3.82647 -4.95087
ltoes -24.8722
105
root -0.445992 18.0984 26.9959 3.50881 1.60618 2.35703
lowerback 14.919 -2.84492 -4.70271
upperback 0.820775 -4.62923 -0.972144
thorax -7.19394 -2.10854 2.56831
lowerneck -4.75251 1.73298 -1.62238
upperneck -7.64869 2.4087 0.928171
head -1.6082 1.22956 0.556452
rclavicle 7.13637e-014 -1.59028e-015
rhumerus -55.9622 10.0227 -88.5355
rradius 84.4926
rwrist -2.31827
rhand -45.9569 37.2713
rfingers 7.12502
rthumb -18.7042 8.15055
lclavicle 7.13637e-014 -1.59028e-015
lhumerus -15.7698 -16.4798 86.2278
lradius 117.227
lwrist 25.4863
lhand -39.0909 6.59787
lfingers 7.12502
lthumb -12.0913 36.2285
rfemur -38.3536 -4.12182 18.2925
rtibia 92.6119
rfoot 13.7024 -4.71742
rtoes 17.5678
lfemur 4.94313 -4.42226 -27.0662
ltibia 27.5938
lfoot 0.138504 -5.55783
ltoes -23.7707
106
root -0.457305 18.223 27.54 3.76695 1.75363 2.51507
lowerback 14.7258 -3.07776 -4.92186
upperback 0.562996 -4.96435 -0.839277
thorax -7.30906 -2.25441 2.89349
lowerneck -4.62392 1.83852 -1.6912
upperneck -7.42094 2.54405 0.84067
head -1.55882 1.29919 0.54012
rclavicle 8.94531e-016 -5.56597e-015
rhumerus -57.178 10.0999 -88.346
rradius 84.851
rwrist -2.11923
rhand -45.8344 37.4384
rfingers 7.12502
rthumb -18.5864 8.30635
lclavicle 8.94531e-016 -5.56597e-015
lhumerus -15.5401 -16.687 86.1692
lradius 118.083
lwrist 26.0319
lhand -39.0281 5.75535
lfingers 7.12502
lthumb -12.0307 35.3896
rfemur -39.854 -3.8345 18.3642
rtibia 89.2981
rfoot 12.7842 -4.58934
rtoes 15.998
lfemur 6.78832 -4.59099 -27.0985
ltibia 25.841
lfoot 4.48949 -5.87502
ltoes -22.4377
107
root -0.464198 18.3352 28.0895 3.91528 1.74484 2.39934
lowerback 14.5017 -3.26053 -4.82081
upperback 0.388235 -5.17068 -0.658287
thorax -7.34714 -2.35176 3.05991
lowerneck -4.44176 1.92595 -1.71609
upperneck -7.38669 2.65436 0.767482
head -1.57944 1.3552 0.519849
rclavicle -3.05134e-014 1.19271e-014
rhumerus -58.1665 10.0714 -88.048
rradius 85.031
rwrist -2.23164
rhand -45.5143 37.0657
rfingers 7.12502
rthumb -18.2785 7.90447
lclavicle -3.05134e-014 1.19271e-014
lhumerus -15.3585 -16.9273 86.237
lradius 118.824
lwrist 26.3579
lhand -38.7015 4.44795
lfingers 7.12502
lthumb -11.7158 34.1003
rfemur -40.8196 -3.39451 18.6754
rtibia 85.7088
rfoot 11.8906 -4.80205
rtoes 14.5013
lfemur 8.77614 -4.85838 -26.9299
ltibia 23.91
lfoot 8.94968 -5.51944
ltoes -21.5327
